<?xml version="1.0" encoding="utf-8"?>
<!-- Generator: Adobe Illustrator 16.0.0, SVG Export Plug-In . SVG Version: 6.00 Build 0)  -->
<!DOCTYPE svg PUBLIC "-//W3C//DTD SVG 1.1//EN" "http://www.w3.org/Graphics/SVG/1.1/DTD/svg11.dtd">
<svg version="1.1" id="Layer_1" xmlns="http://www.w3.org/2000/svg" xmlns:xlink="http://www.w3.org/1999/xlink" x="0px" y="0px"
	 width="488.094px" height="489.606px" viewBox="0 0 488.094 489.606" enable-background="new 0 0 488.094 489.606"
	 xml:space="preserve">
<g>
	<path fill="#010101" d="M97.583,292.107h307.358c0.661,0,1.304-0.116,1.91-0.33c45.686-3.263,81.242-41.279,81.242-87.223
		c0-46.897-37.063-85.301-83.434-87.455c1.334-6.469,2.008-12.999,2.008-19.51c0-53.813-43.783-97.59-97.596-97.59
		c-38.269,0-72.993,22.668-88.722,57.154c-12.216-7.564-26.096-11.536-40.582-11.536c-32.932,0-62.252,21.047-73.061,51.806
		c-3.219-0.336-6.242-0.502-9.118-0.502C43.776,96.922,0,140.698,0,194.512S43.771,292.107,97.583,292.107z M97.583,109.168
		c3.825,0,7.804,0.331,12.534,1.028c2.986,0.404,5.973-1.444,6.793-4.431c7.778-28.201,33.623-47.901,62.858-47.901
		c14.406,0,28.122,4.676,39.646,13.513c1.549,1.176,3.562,1.555,5.447,1.017c1.872-0.551,3.372-1.959,4.032-3.795
		c12.197-33.709,44.419-56.353,80.185-56.353c47.063,0,85.355,38.286,85.355,85.35c0,8.017-1.169,16.096-3.488,24.003
		c-0.557,1.903-0.153,3.953,1.064,5.501c1.225,1.555,3.104,2.473,5.104,2.332l1.444-0.092c0.661-0.049,1.322-0.098,1.995-0.098
		c41.524,0,75.307,33.788,75.307,75.313c0,39.958-31.279,72.944-71.219,75.099c-0.428,0.024-0.856,0.104-1.261,0.214H97.583
		c-47.063,0-85.35-38.286-85.35-85.35C12.233,147.455,50.521,109.168,97.583,109.168z"/>
	<path fill="#010101" d="M338.068,364.177c3.385,0,6.12-2.735,6.12-6.12c0-3.384-2.735-6.12-6.12-6.12H59.725
		c-3.384,0-6.119,2.736-6.119,6.12c0,3.385,2.735,6.12,6.119,6.12H338.068z"/>
	<path fill="#010101" d="M426.876,414.654H148.532c-3.385,0-6.12,2.736-6.12,6.12c0,3.385,2.735,6.12,6.12,6.12h278.344
		c3.384,0,6.12-2.735,6.12-6.12C432.996,417.391,430.26,414.654,426.876,414.654z"/>
	<path fill="#010101" d="M60.698,489.606h366.178c3.384,0,6.12-2.736,6.12-6.12c0-3.385-2.736-6.12-6.12-6.12H60.698
		c-3.385,0-6.12,2.735-6.12,6.12C54.578,486.87,57.313,489.606,60.698,489.606z"/>
</g>
</svg>
