<?xml version="1.0" encoding="utf-8"?>
<!-- Generator: Adobe Illustrator 16.0.0, SVG Export Plug-In . SVG Version: 6.00 Build 0)  -->
<!DOCTYPE svg PUBLIC "-//W3C//DTD SVG 1.1//EN" "http://www.w3.org/Graphics/SVG/1.1/DTD/svg11.dtd">
<svg version="1.1" id="Layer_1" xmlns="http://www.w3.org/2000/svg" xmlns:xlink="http://www.w3.org/1999/xlink" x="0px" y="0px"
	 width="557.003px" height="323.367px" viewBox="0 0 557.003 323.367" enable-background="new 0 0 557.003 323.367"
	 xml:space="preserve">
<g>
	<g>
		<path fill="#010101" d="M345.165,301.051H86.391c-1.195,0-2.318-0.598-2.976-1.602c-0.67-1.004-0.789-2.26-0.335-3.371
			l38.884-93.15c0.562-1.339,1.864-2.212,3.311-2.212c0.479,0,0.944,0.095,1.387,0.286c0.885,0.358,1.565,1.052,1.937,1.937
			c0.358,0.884,0.358,1.865-0.012,2.749l-36.816,88.19h251.004l21.659-51.924c0.562-1.339,1.866-2.2,3.313-2.2
			c0.477,0,0.944,0.084,1.385,0.274c1.818,0.766,2.689,2.868,1.925,4.686l-22.591,54.124
			C347.913,300.178,346.61,301.051,345.165,301.051z M376.947,224.86c-0.466,0-0.932-0.096-1.373-0.274
			c-1.829-0.766-2.689-2.868-1.925-4.698c0.55-1.338,1.853-2.199,3.299-2.199c0.479,0,0.944,0.096,1.387,0.274
			c1.818,0.766,2.689,2.868,1.925,4.698C379.697,224.001,378.406,224.86,376.947,224.86z M386.152,202.796
			c-0.466,0-0.932-0.096-1.373-0.273c-0.885-0.372-1.578-1.065-1.937-1.948c-0.358-0.885-0.358-1.854,0.012-2.737l20.32-48.697
			c0.55-1.339,1.853-2.2,3.299-2.2h29.764L377.892,7.16H211.445l-64.439,154.398c-0.035,0.096-0.071,0.169-0.119,0.251l-0.012,0.036
			l-0.084,0.144c0,0.012-0.012,0.012-0.012,0.023c-0.036,0.061-0.084,0.144-0.132,0.217l-0.023,0.012l-0.024,0.036
			c0,0.012-0.012,0.023-0.023,0.034l-0.06-0.012l0.048,0.036c-0.013,0.012-0.013,0.023-0.024,0.035l-0.012,0.012
			c-0.048,0.048-0.084,0.108-0.132,0.156c-0.992,1.147-2.678,1.542-4.088,0.956c-1.326-0.562-2.199-1.853-2.199-3.299
			c0-0.479,0.084-0.944,0.275-1.399L205.744,2.199C206.305,0.86,207.608,0,209.054,0h171.217c1.458,0,2.763,0.86,3.313,2.199
			l61.354,146.94c0.455,1.111,0.334,2.365-0.323,3.37c-0.67,1.004-1.781,1.602-2.988,1.602h-32.764l-19.398,46.486
			C388.913,201.936,387.61,202.796,386.152,202.796z M134.479,185.834c-0.466,0-0.933-0.096-1.375-0.286
			c-1.828-0.753-2.689-2.857-1.924-4.686c0.55-1.339,1.853-2.213,3.311-2.213c0.467,0,0.933,0.096,1.375,0.287
			c0.885,0.371,1.578,1.052,1.937,1.937c0.358,0.896,0.358,1.865-0.013,2.749C137.24,184.962,135.937,185.834,134.479,185.834z"/>
	</g>
	<path fill="#010101" d="M553.424,301.051H379.9c-1.972,0-3.586-1.614-3.586-3.586c0-1.984,1.614-3.586,3.586-3.586h168.133
		l-58.319-139.78h-80.851l-55.354,132.668v0.013c-0.275,0.645-0.719,1.195-1.291,1.577c-0.992,0.682-2.295,0.824-3.408,0.358
		c-1.805-0.765-2.664-2.785-1.96-4.612c0.012-0.025,0.024-0.048,0.035-0.084l56.287-134.879c0.55-1.339,1.854-2.2,3.3-2.2h85.633
		c1.446,0,2.75,0.861,3.312,2.2l61.308,146.939c0.466,1.113,0.347,2.367-0.323,3.371
		C555.742,300.453,554.62,301.051,553.424,301.051z"/>
	<g>
		<path fill="#010101" d="M86.391,301.051H3.581c-1.387,0-2.654-0.813-3.239-2.066c-0.598-1.257-0.395-2.763,0.49-3.813
			l99.211-118.886c1.219-1.458,3.586-1.674,5.044-0.454c1.518,1.267,1.721,3.526,0.466,5.055l-94.31,112.993H84L142.32,154.11
			h-16.112c-1.973,0-3.586-1.614-3.586-3.586c0-1.984,1.613-3.586,3.586-3.586h21.504c1.195,0,2.318,0.598,2.976,1.59
			c0.67,1.004,0.789,2.26,0.323,3.37l-61.308,146.94C89.141,300.178,87.85,301.051,86.391,301.051z"/>
	</g>
	<g>
		<path fill="#010101" d="M387.443,323.367H18.306c-1.972,0-3.586-1.613-3.586-3.586c0-1.984,1.614-3.586,3.586-3.586h369.137
			c1.972,0,3.586,1.602,3.586,3.586C391.029,321.754,389.415,323.367,387.443,323.367z"/>
	</g>
</g>
</svg>
