<?xml version="1.0" encoding="UTF-8"?>
<svg width="428px" height="370px" viewBox="0 0 428 370" version="1.1" xmlns="http://www.w3.org/2000/svg" xmlns:xlink="http://www.w3.org/1999/xlink">
    <!-- Generator: Sketch 57.1 (83088) - https://sketch.com -->
    <title>mapFaskes</title>
    <desc>Created with Sketch.</desc>
    <g id="Page-1" stroke="none" stroke-width="1" fill="none" fill-rule="evenodd">
        <path d="M313.732,0.603 C344.054,0.603 372.568,12.418 394.007,33.854 C415.449,55.298 427.26,83.807 427.26,114.129 C427.26,144.452 415.451,172.965 394.01,194.4 L394.01,194.4 L218.789,369.616 L70.784,221.625 L98.169,221.625 L218.794,342.235 L380.294,180.715 C398.095,162.929 407.886,139.283 407.886,114.134 C407.886,88.984 398.095,65.339 380.304,47.558 C362.523,29.767 338.878,19.982 313.728,19.982 C288.578,19.982 264.933,29.767 247.142,47.558 L247.142,47.558 L218.788,75.916 L190.416,47.558 C172.635,29.767 148.989,19.982 123.84,19.982 C98.69,19.982 75.055,29.767 57.264,47.558 C39.473,65.339 29.693,88.979 29.693,114.134 C29.693,135.9 37.026,156.523 50.526,173.216 L50.526,173.216 L26.865,173.216 C16.073,155.596 10.318,135.309 10.318,114.13 C10.318,83.812 22.118,55.299 43.568,33.854 C65.003,12.414 93.511,0.603 123.834,0.603 C154.167,0.603 182.68,12.418 204.11,33.854 L204.11,33.854 L218.787,48.532 L233.455,33.854 C254.91,12.414 283.408,0.603 313.732,0.603 Z M182.234,155.441 C185.908,147.134 192.485,146.884 194.415,146.999 C196.345,147.125 202.861,148.198 205.458,156.89 L205.458,156.89 L236.222,259.394 L262.88,200.156 C266.114,192.958 274.198,187.729 282.11,187.729 L282.11,187.729 L323.651,187.729 C329.001,187.729 333.337,192.06 333.337,197.409 C333.337,202.758 328.995,207.094 323.651,207.094 L323.651,207.094 L282.19,207.094 C281.697,207.194 280.791,207.776 280.504,208.182 L280.504,208.182 L246.256,284.287 C242.867,291.803 237.117,292.674 234.672,292.674 C234.416,292.674 234.201,292.659 234.035,292.649 C232.096,292.524 225.607,291.436 223.002,282.758 L223.002,282.758 L192.328,180.511 L166.321,239.397 C162.637,247.713 156.06,247.943 154.13,247.838 C152.201,247.719 145.704,246.641 143.097,237.939 L143.097,237.939 L131.242,198.327 C126.971,203.515 119.768,207.099 113.206,207.099 L113.206,207.099 L113.206,207.098 L8.677,207.098 L8.677,206.952 C4.115,206.175 0.631,202.21 0.631,197.418 C0.631,192.63 4.12,188.66 8.682,187.888 L8.682,187.888 L8.682,187.743 L113.206,187.743 C114.038,187.682 115.808,186.71 116.309,186.018 L116.309,186.018 L116.585,185.562 L123.107,177.291 C126.2,172.71 130.842,170.364 135.659,171.015 C140.632,171.687 144.607,175.412 146.261,180.986 L146.261,180.986 L156.237,214.302 Z" id="Combined-Shape" fill="#000000" fill-rule="nonzero"></path>
    </g>
</svg>