<?xml version="1.0" encoding="utf-8"?>
<!-- Generator: Adobe Illustrator 16.0.0, SVG Export Plug-In . SVG Version: 6.00 Build 0)  -->
<!DOCTYPE svg PUBLIC "-//W3C//DTD SVG 1.1//EN" "http://www.w3.org/Graphics/SVG/1.1/DTD/svg11.dtd">
<svg version="1.1" id="Layer_1" xmlns="http://www.w3.org/2000/svg" xmlns:xlink="http://www.w3.org/1999/xlink" x="0px" y="0px"
	 width="569.159px" height="569.16px" viewBox="0 0 569.159 569.16" enable-background="new 0 0 569.159 569.16"
	 xml:space="preserve">
<path fill="#010101" d="M284.58,0C127.908,0,0,127.908,0,284.58c0,156.673,127.908,284.58,284.58,284.58
	s284.579-127.907,284.579-284.58C569.159,127.908,441.252,0,284.58,0z M271.728,549.576c-1.224,0-2.447,0-3.672-0.611
	c-1.224,0-3.06-0.612-4.284-1.225c-1.224,0-2.447-0.611-3.06-0.611c-1.224-0.612-3.061-0.612-4.284-1.225
	c-1.224-0.611-1.836-0.611-3.06-1.224c-1.225-0.612-3.061-1.224-4.284-1.836c-0.612-0.612-1.836-0.612-2.448-1.224
	c-1.836-1.225-4.284-1.837-6.12-3.061c-0.611-0.612-1.224-0.612-2.448-1.224c-1.836-1.225-3.672-1.836-5.508-3.061
	c-1.224-0.611-1.836-1.224-2.448-1.836c-1.224-0.611-2.447-1.836-4.283-3.06c-1.225-0.612-1.836-1.836-3.061-2.448
	c-1.224-1.224-2.448-1.836-3.672-3.06c-1.224-0.612-1.836-1.836-3.06-2.448c-1.225-1.225-2.448-1.836-3.672-3.061
	c-1.225-1.224-1.837-1.836-3.061-3.06s-2.448-2.448-3.06-3.061c-1.225-1.224-1.836-2.447-3.061-3.06
	c-1.224-1.224-1.836-2.448-3.06-3.672c-1.225-1.224-1.836-2.448-3.061-3.672c-1.224-1.224-1.836-2.448-3.06-3.672
	c-1.224-1.225-1.836-2.448-2.448-3.672c-1.224-1.225-1.836-2.448-3.06-4.284c-0.612-1.225-1.836-2.448-2.448-3.672
	c-1.224-1.225-1.836-3.061-3.061-4.284c-0.611-1.224-1.836-2.448-2.447-4.284c-0.612-1.224-1.836-3.06-2.448-4.284
	c-0.612-1.224-1.836-3.06-2.448-4.284c-0.611-1.836-1.836-3.06-2.448-4.896c-0.611-1.224-1.836-3.06-2.447-4.284
	c-0.612-1.836-1.836-3.06-2.448-4.896s-1.224-3.061-2.448-4.896c-0.611-1.836-1.224-3.672-2.448-4.896
	c-0.611-1.836-1.224-3.061-1.836-4.896c-0.611-1.836-1.224-3.672-1.836-5.508c-0.611-1.836-1.224-3.061-1.836-4.896
	c0-0.611-0.611-0.611-0.611-1.224h117.504v2.448v62.424v56.304C274.176,550.188,272.952,550.188,271.728,549.576z M18.359,293.761
	h96.084c0,3.06,0,6.119,0,9.18c0,1.836,0,3.06,0,4.896c0,4.896,0.612,10.404,1.225,15.301c0,1.224,0,2.447,0,3.06
	c0.612,6.12,1.224,11.628,1.836,17.748c0,1.224,0.612,3.06,0.612,4.284c0.611,4.896,1.224,9.18,1.836,14.076
	c0,1.224,0.611,3.06,0.611,4.283c1.225,5.509,1.836,11.017,3.061,16.524c0,1.224,0.611,1.836,0.611,3.061
	c1.225,4.896,2.448,9.18,3.673,13.464c0.611,1.224,0.611,3.06,1.224,4.284c0.612,2.447,1.224,4.896,1.836,6.731H50.796
	C31.212,376.38,20.196,335.988,18.359,293.761z M50.796,157.896h82.008c-0.612,2.448-1.224,4.896-1.836,6.731
	c-0.612,1.225-0.612,3.061-1.224,4.284c-1.225,4.284-2.448,9.181-3.672,13.464c0,1.225-0.612,1.836-0.612,3.061
	c-1.225,5.508-2.448,11.016-3.061,16.523c0,1.225-0.611,3.061-0.611,4.284c-0.612,4.284-1.225,9.181-1.836,14.076
	c0,1.224-0.612,3.06-0.612,4.284c-0.612,6.12-1.224,11.628-1.836,17.748c0,1.224,0,2.448,0,3.06
	c-0.612,4.896-0.612,10.404-1.224,15.3c0,1.837,0,3.061,0,4.896c0,3.06,0,6.12,0,9.18H18.359
	C20.196,233.172,31.212,192.78,50.796,157.896z M160.344,133.416c0.612-1.836,1.224-3.672,1.836-5.508s1.225-3.06,1.836-4.896
	c0.612-1.836,1.225-3.672,2.448-4.896c0.612-1.836,1.224-3.06,2.448-4.896c0.611-1.836,1.836-3.061,2.447-4.896
	c0.612-1.224,1.837-3.06,2.448-4.284c0.612-1.836,1.836-3.06,2.448-4.896c0.612-1.225,1.836-3.061,2.448-4.284
	c0.611-1.224,1.836-3.06,2.447-4.284c0.612-1.224,1.837-3.06,2.448-4.284c0.612-1.224,1.836-3.06,3.061-4.283
	c0.611-1.225,1.836-2.448,2.447-3.673c1.225-1.224,1.837-2.447,3.061-4.283c0.612-1.225,1.836-2.448,2.448-3.673
	c1.224-1.224,1.836-2.447,3.06-3.672c1.224-1.224,1.836-2.447,3.061-3.672c1.224-1.224,1.836-2.448,3.06-3.672
	s1.836-2.448,3.06-3.06c1.225-1.225,2.448-2.448,3.061-3.061c1.224-1.224,1.836-1.836,3.06-3.06
	c1.225-1.225,2.448-1.836,3.672-3.061c1.225-0.611,1.836-1.836,3.061-2.447c1.224-1.225,2.448-1.836,3.672-3.061
	c1.224-0.612,1.836-1.836,3.06-2.448c1.225-1.224,2.448-1.836,4.284-3.06c0.612-0.612,1.836-1.224,2.448-1.836
	c1.836-1.224,3.672-2.448,5.508-3.061c0.612-0.611,1.225-0.611,2.448-1.224c1.836-1.224,4.284-2.448,6.12-3.06
	c0.611-0.612,1.836-0.612,2.448-1.225c1.224-0.611,3.06-1.224,4.283-1.836c1.225-0.612,1.836-0.612,3.061-1.224
	c1.224-0.612,3.06-1.225,4.284-1.225c1.224,0,2.447-0.611,3.06-0.611c1.224-0.612,3.061-0.612,4.284-1.225
	c1.224,0,2.448-0.611,3.672-0.611s2.448-0.612,3.672-0.612v56.304V137.7v1.836H157.896c0-0.611,0.612-0.611,0.612-1.224
	C158.508,136.477,159.731,134.641,160.344,133.416z M150.552,409.429c-0.612-1.836-1.224-3.672-1.836-6.12
	c-0.612-1.836-1.224-3.672-1.224-5.508c-0.612-1.836-1.225-4.284-1.836-6.12c-0.612-1.836-1.225-3.672-1.225-5.508
	c-0.612-1.837-1.224-4.284-1.224-6.12c-0.612-1.837-0.612-3.673-1.225-5.509c-0.611-2.447-0.611-4.283-1.224-6.731
	c-0.612-1.836-0.612-3.672-1.224-5.508c-0.612-2.448-0.612-4.284-1.225-6.732c0-1.836-0.611-3.672-0.611-5.508
	c-0.612-2.448-0.612-4.896-1.225-6.732c0-1.836-0.611-3.672-0.611-5.508c0-2.448-0.612-4.896-0.612-7.344
	c0-1.836-0.612-3.672-0.612-5.508c0-2.448-0.612-5.509-0.612-7.956c0-1.836,0-3.672-0.611-5.509c0-3.06,0-6.119-0.612-9.18
	c0-1.224,0-3.06,0-4.284c0-1.224,0-3.06,0-4.283h141.984v77.724v39.78H151.164C151.164,410.652,151.164,410.041,150.552,409.429z
	 M133.416,266.832c0-3.06,0-6.12,0.611-9.18c0-1.836,0-3.672,0.612-5.508c0-2.448,0.612-5.508,0.612-7.956
	c0-1.836,0.612-3.672,0.612-5.508c0-2.448,0.611-4.896,0.611-7.345c0-1.836,0.612-3.672,0.612-5.508
	c0-2.448,0.612-4.896,1.224-6.731c0-1.836,0.612-3.672,0.612-5.509c0.612-2.447,0.612-4.283,1.224-6.731
	c0.612-1.836,0.612-3.672,1.225-5.508c0.611-2.448,0.611-4.284,1.224-6.732c0.612-1.836,0.612-3.672,1.225-5.508
	c0.611-1.836,1.224-4.284,1.224-6.12c0.612-1.836,0.612-3.672,1.224-5.508c0.612-1.836,1.225-4.284,1.836-6.12
	c0.612-1.836,1.225-3.672,1.225-5.508c0.611-1.836,1.224-3.672,1.836-6.12c0-0.612,0.611-1.224,0.611-1.836h124.236v39.78V275.4
	H133.416c0-1.224,0-3.061,0-4.284S133.416,268.057,133.416,266.832z M293.76,287.028c0-0.612,0.611-1.836,0.611-2.448
	c0-0.611,0-1.836-0.611-2.448v-74.663c38.556,4.283,68.544,37.332,68.544,77.111c0,39.78-29.988,72.828-68.544,77.112V287.028z
	 M293.76,380.053c48.96-4.896,86.904-45.9,86.904-95.473c0-49.571-37.944-91.188-86.904-95.472c0,0,0.611-39.168,0.611-40.392
	c0-0.612,0-1.225,0-1.225c70.992,4.896,127.908,64.26,127.908,137.088s-56.916,132.192-127.908,137.089c0-0.612,0-1.225,0-1.225
	C294.371,419.833,293.76,380.053,293.76,380.053z M293.76,440.641c82.008-4.896,146.88-72.828,146.88-156.061
	c0-83.231-64.872-151.164-146.88-156.06V84.456c105.876,4.896,190.943,93.024,190.943,200.124
	c0,107.101-85.067,195.229-190.943,200.124V440.641z M209.916,28.765c-0.612,0.611-0.612,0.611-1.225,1.224
	c-2.447,2.448-4.896,4.284-7.956,6.732c-0.611,0.611-1.836,1.836-2.447,2.447c-3.061,3.061-6.12,6.12-8.568,9.181l0,0
	c-3.06,3.06-5.508,6.731-8.568,10.403c-0.611,1.225-1.224,1.836-2.447,3.061c-2.448,3.06-4.284,6.12-6.732,9.18
	c-0.612,0.612-0.612,1.225-1.224,1.836c-2.448,3.672-4.896,7.956-7.345,12.24c-0.611,1.224-1.224,1.836-1.836,3.06
	c-1.836,3.061-3.672,6.732-5.508,10.404c-0.611,1.225-1.224,2.448-1.836,3.061c-2.448,4.283-4.284,9.18-6.12,13.464
	c-0.611,0.611-0.611,1.836-1.224,2.447c-1.836,3.673-3.061,7.956-4.896,12.24c-0.611,1.225-1.224,2.448-1.836,4.284
	c-0.611,1.836-1.224,3.672-1.836,5.508H61.2C96.084,86.904,148.104,47.124,209.916,28.765z M209.916,540.396
	C148.104,522.648,96.084,482.257,61.2,429.625h77.111c0.612,1.836,1.225,3.672,1.836,5.508c0.612,1.224,1.225,2.448,1.836,4.284
	c1.836,4.283,3.061,7.956,4.896,12.239c0.612,0.612,0.612,1.836,1.224,2.448c1.836,4.896,4.284,9.18,6.12,13.464
	c0.612,1.225,1.225,2.448,1.836,3.061c1.836,3.672,3.672,6.731,5.508,10.403c0.612,1.225,1.225,1.836,1.836,3.061
	c2.448,4.284,4.896,7.956,7.345,12.239c0.611,0.612,0.611,1.225,1.224,1.837c2.448,3.06,4.284,6.12,6.732,9.18
	c0.611,1.224,1.224,1.836,2.447,3.06c2.448,3.672,5.509,6.732,8.568,10.404l0,0c3.061,3.061,6.12,6.12,8.568,9.18
	c0.611,0.612,1.836,1.836,2.448,2.448c2.447,2.448,4.896,4.896,7.955,6.732C209.304,539.173,209.304,539.784,209.916,540.396z
	 M293.76,550.801v-47.736c116.28-4.896,209.304-100.979,209.304-218.484c0-117.504-93.023-213.588-209.304-218.483V18.36
	c142.596,4.896,257.04,122.4,257.04,266.22C550.8,428.4,436.355,545.904,293.76,550.801z"/>
</svg>
