<?xml version="1.0" encoding="utf-8"?>
<!-- Generator: Adobe Illustrator 16.0.0, SVG Export Plug-In . SVG Version: 6.00 Build 0)  -->
<!DOCTYPE svg PUBLIC "-//W3C//DTD SVG 1.1//EN" "http://www.w3.org/Graphics/SVG/1.1/DTD/svg11.dtd">
<svg version="1.1" id="Layer_1" xmlns="http://www.w3.org/2000/svg" xmlns:xlink="http://www.w3.org/1999/xlink" x="0px" y="0px"
	 width="617px" height="572.123px" viewBox="0 0 617 572.123" enable-background="new 0 0 617 572.123" xml:space="preserve">
<path d="M405.029,64.912L204.37,2.735L0,67.748v504.375l203.991-56.172l200.497,53.654L617,516.477V0L405.029,64.912z
	 M195.405,499.645L23.299,547.037l90.058-252.049l82.048-5.168V499.645z M195.405,273.682l-94.91,3.808L18,508.373V80.911
	l177.404-56.435V273.682z M213.405,52.906L317.85,268.77l-104.445,4.19V52.906z M396.013,548.703l-182.608-48.867v-211.15
	l130.112-8.196l52.496-14.353V548.703z M396.013,247.478l-60.47,16.533L220.692,26.637l175.321,54.326V247.478z M599,502.422
	L414.013,548.67V261.216l85.111-23.27L599,321.523V502.422z M599,298.053l-84.189-70.45L599,127.108V298.053z M599,99.078
	L498.05,219.581l-84.037,22.976V80.986l20.898-6.4l44.977,102.403l51.489-131.944L599,24.337V99.078z"/>
</svg>
