<?xml version="1.0" encoding="utf-8"?>
<!-- Generator: Adobe Illustrator 16.0.0, SVG Export Plug-In . SVG Version: 6.00 Build 0)  -->
<!DOCTYPE svg PUBLIC "-//W3C//DTD SVG 1.1//EN" "http://www.w3.org/Graphics/SVG/1.1/DTD/svg11.dtd">
<svg version="1.1" id="Layer_1" xmlns="http://www.w3.org/2000/svg" xmlns:xlink="http://www.w3.org/1999/xlink" x="0px" y="0px"
	 width="573.75px" height="573.75px" viewBox="0 0 573.75 573.75" enable-background="new 0 0 573.75 573.75" xml:space="preserve">
<path fill="#010101" d="M286.875,0C128.438,0,0,128.438,0,286.875C0,445.313,128.438,573.75,286.875,573.75
	S573.75,445.313,573.75,286.875C573.75,128.438,445.312,0,286.875,0z M537.508,192.78c-67.894,16.543-109.682,17.403-124.313,2.486
	c-14.631-14.918-5.068-44.37,3.921-76.5c5.762-18.9,9.921-38.254,12.431-57.854C478.875,92.006,516.765,138.285,537.508,192.78z
	 M552.712,318.432c-192.685,54.506-306.096,64.068-336.887,27.062c-27.157-32.321,8.224-104.04,42.362-173.368
	c26.01-52.689,52.688-107.004,56.705-151.374c6.599,0.669,13.005,1.626,19.125,2.773c-1.339,33.182-18.073,76.5-34.329,118.766
	c-27.157,69.902-52.785,136.074-19.125,171.456c13.865,14.439,36.72,21.707,69.52,21.707c46.855,0,113.984-14.918,203.776-44.753
	C553.956,299.958,553.572,309.214,552.712,318.432z M295.003,300.454c-25.532-26.68-0.956-90.079,22.854-151.374
	c16.83-42.267,33.086-85.776,35.955-121.636c5.642,1.53,11.188,3.156,16.734,4.973c-2.062,24.616-6.448,48.981-13.102,72.771
	c-12.144,51.351-24.767,104.423,6.12,135.31c15.97,16.065,41.692,24.002,78.604,24.002c37.021-1.025,73.824-6.027,109.777-14.917
	c0.956,6.885,1.721,13.961,2.104,21.037C409.753,319.005,322.543,329.142,295.003,300.454z M377.049,227.109
	c-23.236-23.428-11.953-71.24-1.052-117.427c6.15-23.052,10.467-46.553,12.909-70.285c7.604,3.082,15.041,6.562,22.281,10.424
	c-1.602,21.607-5.742,42.951-12.336,63.59c-10.423,38.25-20.272,73.632,0.86,95.625c10.614,10.901,27.731,16.353,52.785,16.353
	c30.85-1.143,61.464-5.859,91.227-14.058c1.912,6.503,3.634,13.102,5.067,19.795C457.757,251.303,399.999,250.155,377.049,227.109z
	 M296.438,19.125c-3.825,40.736-29.739,93.33-54.793,144.299c-39.111,78.508-75.64,152.139-40.832,194.405
	c16.352,19.125,46.378,29.356,92.277,29.356c58.236,0,142.194-15.969,256.084-47.813c-2.442,11.669-5.637,23.168-9.563,34.426
	c-227.205,45.23-359.263,44.466-392.063-2.391c-28.688-40.546,15.97-115.803,59.192-188.669
	c36.72-61.965,71.432-120.774,64.164-162.563c5.26,0,10.519,0,15.874,0L296.438,19.125z M523.737,411.188
	c-248.624,49.726-388.715,48.961-427.443-2.295c-32.417-42.84,8.989-123.452,48.96-201.481
	c31.652-61.392,64.355-125.174,65.121-177.098c13.636-4.058,27.579-7,41.692-8.798c7.363,34.999-27.636,94-61.679,151.375
	c-46.378,78.125-94.286,158.833-58.331,209.609c20.751,29.262,67.512,43.893,143.438,43.893c64.164,0,149.079-10.519,256.466-31.461
	C529.348,400.542,526.606,405.961,523.737,411.188z M286.875,554.625c-147.874-0.32-267.489-120.456-267.168-268.33
	c0.24-110.54,68.385-209.569,171.543-249.288c-3.252,46.379-33.373,105.188-62.635,161.989
	C83.959,286.015,41.788,368.252,81.377,420.75c23.428,30.888,74.014,46.283,154.912,46.283c68.945,0,159.98-11.188,274.826-33.564
	C461.617,509.123,377.282,554.688,286.875,554.625z"/>
</svg>
