<?xml version="1.0" encoding="UTF-8"?>
<svg width="570px" height="497px" viewBox="0 0 570 497" version="1.1" xmlns="http://www.w3.org/2000/svg" xmlns:xlink="http://www.w3.org/1999/xlink">
    <!-- Generator: Sketch 57.1 (83088) - https://sketch.com -->
    <title>agriculture emission map icon</title>
    <desc>Created with Sketch.</desc>
    <g id="Page-1" stroke="none" stroke-width="1" fill="none" fill-rule="evenodd">
        <g id="agriculture-emission-map-icon" fill="#FFFFFF" fill-rule="nonzero">
            <path d="M175.688,325.768 C161.392,340.163 150.576,355.817 143.925,370.59 L143.925,285.945 C144.071,286.099 144.202,286.265 144.353,286.416 C162.713,304.715 206.593,290.7 242.273,255.02 C277.891,219.34 273.608,157.1 273.608,157.1 C273.608,157.1 211.306,152.694 175.688,188.496 C161.392,202.866 150.576,218.525 143.925,233.309 L143.925,181.406 C166.318,174.453 183.399,136.743 183.399,91.31 C183.399,40.882 136.275,0 136.275,0 C136.275,0 89.58,40.943 89.58,91.311 C89.58,136.827 106.673,174.593 129.115,181.446 L129.115,231.726 C122.415,217.411 111.874,202.354 98.087,188.497 C62.468,152.695 0.167,157.101 0.167,157.101 C0.167,157.101 -4.179,219.341 31.501,255.021 C66.93,290.51 110.583,304.552 129.115,286.692 L129.115,369.007 C122.415,354.701 111.874,339.65 98.087,325.768 C62.468,289.905 0.167,294.434 0.167,294.434 C0.167,294.434 -4.179,356.674 31.501,392.354 C66.93,427.783 110.583,441.884 129.115,423.965 L129.115,496.761 L143.926,496.761 L143.926,423.216 C144.072,423.37 144.203,423.537 144.354,423.688 C162.714,442.048 206.594,427.972 242.274,392.354 C277.892,356.674 273.609,294.434 273.609,294.434 C273.609,294.434 211.306,289.904 175.688,325.768 Z" id="Path"></path>
            <path d="M471.688,325.768 C457.392,340.163 446.576,355.817 439.925,370.59 L439.925,285.945 C440.071,286.099 440.202,286.265 440.353,286.416 C458.713,304.715 502.593,290.7 538.273,255.02 C573.891,219.34 569.608,157.1 569.608,157.1 C569.608,157.1 507.306,152.694 471.688,188.496 C457.392,202.866 446.576,218.525 439.925,233.309 L439.925,181.406 C462.318,174.453 479.399,136.743 479.399,91.31 C479.399,40.882 432.275,0 432.275,0 C432.275,0 385.58,40.943 385.58,91.311 C385.58,136.827 402.673,174.593 425.115,181.446 L425.115,231.726 C418.416,217.411 407.874,202.354 394.087,188.497 C358.468,152.695 296.167,157.101 296.167,157.101 C296.167,157.101 291.821,219.341 327.501,255.021 C362.93,290.51 406.582,304.552 425.115,286.692 L425.115,369.007 C418.416,354.701 407.874,339.65 394.087,325.768 C358.468,289.905 296.167,294.434 296.167,294.434 C296.167,294.434 291.821,356.674 327.501,392.354 C362.93,427.783 406.582,441.884 425.115,423.965 L425.115,496.761 L439.926,496.761 L439.926,423.216 C440.072,423.37 440.203,423.537 440.354,423.688 C458.714,442.048 502.594,427.972 538.274,392.354 C573.892,356.674 569.609,294.434 569.609,294.434 C569.609,294.434 507.306,289.904 471.688,325.768 Z" id="Path"></path>
        </g>
    </g>
</svg>