<?xml version="1.0" encoding="utf-8"?>
<!-- Generator: Adobe Illustrator 16.0.0, SVG Export Plug-In . SVG Version: 6.00 Build 0)  -->
<!DOCTYPE svg PUBLIC "-//W3C//DTD SVG 1.1//EN" "http://www.w3.org/Graphics/SVG/1.1/DTD/svg11.dtd">
<svg version="1.1" id="Layer_1" xmlns="http://www.w3.org/2000/svg" xmlns:xlink="http://www.w3.org/1999/xlink" x="0px" y="0px"
	 width="1348.5px" height="201.064px" viewBox="0 0 1348.5 201.064" enable-background="new 0 0 1348.5 201.064"
	 xml:space="preserve">
<g>
	<linearGradient id="SVGID_1_" gradientUnits="userSpaceOnUse" x1="291.3945" y1="184.6958" x2="406.1555" y2="91.7642">
		<stop  offset="0" style="stop-color:#3C72B8"/>
		<stop  offset="0.1629" style="stop-color:#3881C3"/>
		<stop  offset="0.4101" style="stop-color:#2F96D3"/>
		<stop  offset="0.6399" style="stop-color:#26A6DE"/>
		<stop  offset="0.8436" style="stop-color:#1FAFE5"/>
		<stop  offset="1" style="stop-color:#1CB3E8"/>
	</linearGradient>
	<path fill="url(#SVGID_1_)" d="M397.344,80.884h-33.833c0,0-17.088,2.05-26.999,20.505c-9.91,18.455-42.377,86.691-42.377,86.691
		s8.971,11.648,27.17,11.143c7.266-0.201,17.315,0.42,26.485-9.576L397.344,80.884z"/>
	<path fill="#3A72B9" d="M347.79,189.646c0,0-4.448,5.497-13.106-9.541c-8.657-15.037-20.049-50.124-25.744-61.06
		c-5.696-10.936-12.025-13.67-16.582-14.81s-26.251,0-26.251,0s-10.48,1.823-14.125,13.898c0,0,4.842-7.519,10.765,3.588
		c5.924,11.107,29.79,64.079,29.79,64.079s4.328,11.38,18.91,13.436h18.227C329.672,199.238,340.955,197.848,347.79,189.646z"/>
	<linearGradient id="SVGID_2_" gradientUnits="userSpaceOnUse" x1="207.9546" y1="78.3813" x2="218.6917" y2="201.1069">
		<stop  offset="0" style="stop-color:#1CB3E8"/>
		<stop  offset="0.1629" style="stop-color:#29A2DC"/>
		<stop  offset="0.4101" style="stop-color:#338CCC"/>
		<stop  offset="0.6399" style="stop-color:#397DC1"/>
		<stop  offset="0.8436" style="stop-color:#3B75BB"/>
		<stop  offset="1" style="stop-color:#3C72B8"/>
	</linearGradient>
	<path fill="url(#SVGID_2_)" d="M161.533,82.441l36.597-0.535c0,0,13.911,1.027,23.821,19.482
		c9.911,18.455,42.377,86.69,42.377,86.69s-8.971,11.648-27.169,11.143c-7.265-0.202-17.315,0.42-26.486-9.576L161.533,82.441z"/>
	<linearGradient id="SVGID_3_" gradientUnits="userSpaceOnUse" x1="410.6348" y1="196.8164" x2="416.6664" y2="81.7268">
		<stop  offset="0" style="stop-color:#FDB714"/>
		<stop  offset="0.1586" style="stop-color:#D8B65D"/>
		<stop  offset="0.3256" style="stop-color:#B3B68A"/>
		<stop  offset="0.4875" style="stop-color:#90B5AB"/>
		<stop  offset="0.6397" style="stop-color:#6FB4C4"/>
		<stop  offset="0.7802" style="stop-color:#4FB3D6"/>
		<stop  offset="0.9046" style="stop-color:#31B3E2"/>
		<stop  offset="1" style="stop-color:#1CB3E8"/>
	</linearGradient>
	<path fill="url(#SVGID_3_)" d="M363.511,80.884l34.646-0.127c0,0,13.911,1.027,23.821,19.482
		c9.911,18.455,42.377,86.69,42.377,86.69s-8.971,11.648-27.169,11.143c-7.265-0.202-17.315,0.42-26.485-9.576L363.511,80.884z"/>
	<path fill="#D2942A" d="M72.959,3.407l28.465-3.19c0,0,15.587,1.134,24.627,11.338c9.041,10.204,38.656,47.935,38.656,47.935
		s-8.183,6.441-24.783,6.161c-6.628-0.111-15.796,0.232-24.161-5.295L72.959,3.407z"/>
	<linearGradient id="SVGID_4_" gradientUnits="userSpaceOnUse" x1="258.2686" y1="200.7832" x2="263.4146" y2="102.5918">
		<stop  offset="0" style="stop-color:#3C72B8"/>
		<stop  offset="0.1629" style="stop-color:#3881C3"/>
		<stop  offset="0.4101" style="stop-color:#2F96D3"/>
		<stop  offset="0.6399" style="stop-color:#26A6DE"/>
		<stop  offset="0.8436" style="stop-color:#1FAFE5"/>
		<stop  offset="1" style="stop-color:#1CB3E8"/>
	</linearGradient>
	<path fill="url(#SVGID_4_)" d="M210.673,189.646c0,0,4.449,5.496,13.106-9.541c8.658-15.037,20.049-50.123,25.745-61.059
		c5.696-10.936,12.025-13.67,16.582-14.809c4.557-1.139,25.265-0.18,25.265-0.18s12.017,0.779,19.182,18.371
		c0,0-8.911-11.813-14.835-0.706c-5.923,11.107-29.789,64.08-29.789,64.08s-4.329,11.379-18.91,13.436h-18.227
		C228.792,199.238,217.508,197.848,210.673,189.646z"/>
	<linearGradient id="SVGID_5_" gradientUnits="userSpaceOnUse" x1="131.5957" y1="155.54" x2="202.484" y2="60.221">
		<stop  offset="0" style="stop-color:#FDB714"/>
		<stop  offset="0.1586" style="stop-color:#D8B65D"/>
		<stop  offset="0.3256" style="stop-color:#B3B68A"/>
		<stop  offset="0.4875" style="stop-color:#90B5AB"/>
		<stop  offset="0.6397" style="stop-color:#6FB4C4"/>
		<stop  offset="0.7802" style="stop-color:#4FB3D6"/>
		<stop  offset="0.9046" style="stop-color:#31B3E2"/>
		<stop  offset="1" style="stop-color:#1CB3E8"/>
	</linearGradient>
	<path fill="url(#SVGID_5_)" d="M66.654,186.64c0,0,2.892,7.639,18.685-11.035c15.792-18.674,42.745-62.247,53.557-75.828
		c10.811-13.582,20.615-16.977,26.193-18.392c5.578-1.415,27.895,0,27.895,0s16.083-1.301,25.128,14.043
		c0,0-17.274-6.12-28.41,7.673c-11.135,13.793-59.317,79.58-59.317,79.58s-8.079,12.695-25.288,15.249l-21.848,1.437
		C83.249,199.366,71.022,196.825,66.654,186.64z"/>
	<circle fill="#1CB3E8" cx="380.929" cy="41.747" r="23.914"/>
	<path fill="#FCB716" d="M101.424,0.217c0,0-16.888-0.786-21.918,0.629c-5.03,1.415-13.871,4.811-23.62,18.392
		C46.136,32.819,21.831,76.392,7.59,95.066c-3.027,3.97-5.527,6.747-7.59,8.665h44.832c12.288-17.663,48.563-69.758,56.87-81.168
		c10.042-13.793,26.799-8.168,26.799-8.168C118.388,0.217,101.424,0.217,101.424,0.217z"/>
	<path fill="#D2942A" d="M47.508,185.837c0,0,7.156,11.379,24.554,13.436h21.272c23.061,0.994,33.797-12.965,34.096-13.344
		c0,0-18.899,9.248-31.782-5.789c-10.145-11.84-32.413-53.869-50.816-76.409H0"/>
</g>
<g>
	<g>
		<path fill="#3A72B9" d="M515.89,192.138h-11.012V110.78h11.012V192.138z"/>
		<path fill="#3A72B9" d="M602.584,110.78v81.358h-5.507c-0.873,0-1.601-0.151-2.185-0.455c-0.588-0.302-1.164-0.813-1.733-1.532
			l-47.064-61.317c0.074,0.947,0.133,1.874,0.17,2.783c0.037,0.908,0.056,1.76,0.056,2.555v57.966h-9.65V110.78h5.677
			c0.492,0,0.909,0.029,1.249,0.086c0.341,0.057,0.644,0.152,0.91,0.284c0.262,0.133,0.528,0.322,0.794,0.567
			c0.263,0.247,0.548,0.559,0.851,0.937l47.067,61.259c-0.077-0.984-0.144-1.939-0.199-2.867c-0.056-0.927-0.085-1.807-0.085-2.64
			V110.78H602.584z"/>
		<path fill="#3A72B9" d="M693.877,151.487c0,6.094-0.965,11.639-2.897,16.635c-1.93,4.997-4.653,9.274-8.173,12.831
			c-3.522,3.559-7.751,6.313-12.688,8.261c-4.942,1.95-10.401,2.924-16.382,2.924h-30.372V110.78h30.372
			c5.98,0,11.439,0.976,16.382,2.925c4.938,1.95,9.166,4.712,12.688,8.289c3.52,3.577,6.243,7.863,8.173,12.859
			C692.912,139.849,693.877,145.394,693.877,151.487z M682.578,151.487c0-4.997-0.681-9.461-2.044-13.399
			c-1.36-3.936-3.294-7.267-5.792-9.992c-2.495-2.725-5.526-4.807-9.082-6.246c-3.56-1.438-7.533-2.157-11.924-2.157h-19.361v63.53
			h19.361c4.391,0,8.364-0.719,11.924-2.158c3.556-1.438,6.587-3.511,9.082-6.216c2.498-2.706,4.432-6.027,5.792-9.964
			C681.897,160.95,682.578,156.484,682.578,151.487z"/>
		<path fill="#3A72B9" d="M784.886,151.487c0,6.094-0.965,11.687-2.898,16.776c-1.929,5.091-4.653,9.472-8.172,13.144
			c-3.522,3.671-7.751,6.52-12.689,8.545c-4.941,2.024-10.401,3.037-16.382,3.037s-11.429-1.013-16.348-3.037
			c-4.924-2.025-9.141-4.874-12.663-8.545c-3.52-3.671-6.243-8.052-8.177-13.144c-1.929-5.09-2.894-10.682-2.894-16.776
			c0-6.093,0.965-11.686,2.894-16.777c1.934-5.089,4.657-9.48,8.177-13.171c3.522-3.689,7.739-6.557,12.663-8.601
			c4.919-2.044,10.367-3.066,16.348-3.066s11.44,1.022,16.382,3.066c4.938,2.044,9.167,4.912,12.689,8.601
			c3.519,3.691,6.243,8.082,8.172,13.171C783.921,139.802,784.886,145.394,784.886,151.487z M773.586,151.487
			c0-4.997-0.68-9.482-2.044-13.455c-1.36-3.975-3.293-7.333-5.792-10.078c-2.495-2.744-5.525-4.854-9.081-6.33
			c-3.56-1.477-7.533-2.215-11.925-2.215c-4.35,0-8.309,0.738-11.864,2.215c-3.56,1.476-6.595,3.586-9.111,6.33
			c-2.518,2.744-4.458,6.103-5.821,10.078c-1.36,3.973-2.044,8.458-2.044,13.455s0.684,9.473,2.044,13.427
			c1.363,3.955,3.304,7.305,5.821,10.048c2.517,2.746,5.552,4.846,9.111,6.302c3.556,1.458,7.515,2.186,11.864,2.186
			c4.392,0,8.365-0.728,11.925-2.186c3.556-1.457,6.586-3.557,9.081-6.302c2.499-2.744,4.432-6.093,5.792-10.048
			C772.906,160.96,773.586,156.484,773.586,151.487z"/>
		<path fill="#3A72B9" d="M866.524,110.78v81.358h-5.508c-0.872,0-1.601-0.151-2.185-0.455c-0.588-0.302-1.164-0.813-1.733-1.532
			l-47.064-61.317c0.074,0.947,0.134,1.874,0.171,2.783c0.036,0.908,0.055,1.76,0.055,2.555v57.966h-9.65V110.78h5.678
			c0.491,0,0.909,0.029,1.249,0.086c0.34,0.057,0.643,0.152,0.909,0.284c0.263,0.133,0.528,0.322,0.795,0.567
			c0.262,0.247,0.547,0.559,0.85,0.937l47.068,61.259c-0.078-0.984-0.145-1.939-0.2-2.867c-0.056-0.927-0.085-1.807-0.085-2.64
			V110.78H866.524z"/>
		<path fill="#3A72B9" d="M937.491,183.167l-0.056,8.971h-50.132V110.78h50.132v8.971h-39.12v27.024h31.68v8.629h-31.68v27.762
			H937.491z"/>
		<path fill="#3A72B9" d="M994.494,123.498c-0.344,0.567-0.709,0.994-1.108,1.277c-0.399,0.285-0.88,0.426-1.449,0.426
			c-0.643,0-1.4-0.321-2.27-0.965c-0.872-0.643-1.959-1.353-3.264-2.129c-1.309-0.775-2.879-1.485-4.713-2.129
			c-1.837-0.643-4.058-0.966-6.671-0.966c-2.462,0-4.628,0.332-6.502,0.994c-1.874,0.663-3.445,1.562-4.713,2.697
			s-2.222,2.47-2.864,4.002c-0.644,1.533-0.965,3.19-0.965,4.968c0,2.271,0.559,4.154,1.675,5.649s2.591,2.773,4.428,3.833
			c1.833,1.06,3.918,1.978,6.243,2.753c2.328,0.776,4.712,1.58,7.155,2.413c2.439,0.833,4.824,1.77,7.152,2.81
			c2.329,1.042,4.41,2.356,6.247,3.946c1.833,1.59,3.312,3.54,4.428,5.849c1.116,2.308,1.675,5.147,1.675,8.516
			c0,3.558-0.606,6.898-1.819,10.021c-1.208,3.123-2.979,5.838-5.308,8.146c-2.324,2.31-5.186,4.126-8.571,5.451
			c-3.39,1.324-7.237,1.987-11.555,1.987c-5.3,0-10.105-0.956-14.419-2.868c-4.317-1.911-8.006-4.494-11.07-7.749l3.179-5.224
			c0.304-0.416,0.67-0.766,1.105-1.05c0.437-0.285,0.917-0.426,1.449-0.426c0.491,0,1.05,0.199,1.674,0.596
			c0.625,0.397,1.335,0.899,2.13,1.504c0.794,0.606,1.703,1.269,2.724,1.988c1.023,0.719,2.188,1.381,3.493,1.987
			c1.305,0.606,2.79,1.107,4.457,1.504c1.664,0.397,3.538,0.596,5.618,0.596c2.613,0,4.942-0.36,6.986-1.079
			s3.773-1.731,5.193-3.037c1.419-1.306,2.506-2.868,3.264-4.684c0.758-1.817,1.135-3.841,1.135-6.075
			c0-2.46-0.559-4.476-1.675-6.046s-2.583-2.886-4.398-3.947c-1.818-1.059-3.899-1.958-6.246-2.696
			c-2.348-0.738-4.731-1.495-7.152-2.271c-2.421-0.775-4.809-1.675-7.152-2.697c-2.347-1.022-4.428-2.346-6.246-3.974
			c-1.819-1.626-3.282-3.662-4.399-6.104c-1.119-2.44-1.678-5.458-1.678-9.055c0-2.876,0.559-5.658,1.678-8.346
			c1.117-2.687,2.743-5.071,4.883-7.153c2.137-2.081,4.769-3.747,7.892-4.996c3.12-1.25,6.705-1.874,10.756-1.874
			c4.543,0,8.679,0.72,12.405,2.158c3.729,1.438,7.012,3.52,9.85,6.246L994.494,123.498z"/>
		<path fill="#3A72B9" d="M1025.491,192.138h-11.015V110.78h11.015V192.138z"/>
		<path fill="#3A72B9" d="M1112.411,192.138h-8.516c-0.983,0-1.778-0.246-2.384-0.739c-0.606-0.491-1.062-1.115-1.364-1.873
			l-7.606-19.644h-36.504l-7.611,19.644c-0.225,0.681-0.661,1.288-1.305,1.817c-0.643,0.53-1.438,0.795-2.384,0.795h-8.516
			l32.53-81.358h11.129L1112.411,192.138z M1089.477,161.934l-12.774-33.1c-0.381-0.983-0.776-2.129-1.194-3.435
			c-0.417-1.306-0.813-2.696-1.193-4.173c-0.795,3.066-1.607,5.621-2.439,7.665l-12.774,33.042H1089.477z"/>
	</g>
</g>
<g>
	<path d="M534.647,19.597c-6.469,0-11.477,2.431-15.025,7.291c-3.548,4.86-5.322,11.635-5.322,20.32
		c0,18.075,6.782,27.112,20.348,27.112c5.692,0,12.586-1.422,20.681-4.269v14.416c-6.653,2.772-14.083,4.158-22.289,4.158
		c-11.79,0-20.81-3.576-27.056-10.729c-6.247-7.152-9.37-17.417-9.37-30.799c0-8.427,1.534-15.81,4.602-22.149
		c3.068-6.339,7.474-11.2,13.222-14.582c5.747-3.382,12.485-5.073,20.211-5.073c7.873,0,15.783,1.904,23.729,5.711l-5.544,13.972
		c-3.031-1.442-6.08-2.697-9.148-3.771C540.617,20.132,537.604,19.597,534.647,19.597z"/>
	<path d="M572.57,87.515V6.457h17.188v66.864h32.878v14.194H572.57z"/>
	<path d="M636.719,87.515V6.457h17.188v81.058H636.719z"/>
	<path d="M708.629,87.515l-19.517-63.594h-0.499c0.702,12.938,1.054,21.567,1.054,25.892v37.702H674.31V6.457h23.396l19.184,61.985
		h0.333L737.57,6.457h23.396v81.058h-16.022V49.148c0-1.811,0.025-3.9,0.081-6.265c0.056-2.365,0.307-8.649,0.75-18.851h-0.499
		l-20.902,63.483H708.629z"/>
	<path d="M830.992,87.515l-5.877-19.294h-29.552l-5.877,19.294h-18.518l28.608-81.391h21.013l28.72,81.391H830.992z M821.012,53.805
		c-5.433-17.483-8.493-27.37-9.178-29.663c-0.684-2.292-1.171-4.103-1.467-5.433c-1.22,4.732-4.713,16.431-10.479,35.096H821.012z"
		/>
	<path d="M890.981,87.515h-17.188V20.761h-22.011V6.457h61.209v14.304h-22.011V87.515z"/>
	<path d="M972.15,87.515h-46.683V6.457h46.683v14.083h-29.495v17.797H970.1v14.083h-27.444v20.902h29.495V87.515z"/>
	<path d="M1054.928,87.515h-4.657l-17.798-62.54c-1.479-5.137-2.587-9.351-3.326-12.641c-0.592,3.215-1.435,6.912-2.524,11.088
		c-1.091,4.178-7.049,25.541-17.879,64.093h-4.768L981.687,6.457h5.933l14.193,52.228c0.555,2.107,1.072,4.057,1.553,5.849
		c0.48,1.793,0.913,3.475,1.301,5.045c0.389,1.572,0.739,3.086,1.054,4.546c0.314,1.461,0.603,2.93,0.861,4.408
		c0.887-5.026,2.772-12.66,5.655-22.898l13.86-49.178h6.266l16.245,56.441c1.885,6.506,3.233,11.754,4.047,15.746
		c0.48-2.661,1.098-5.489,1.855-8.483c0.758-2.994,6.461-24.229,17.106-63.704h5.71L1054.928,87.515z"/>
	<path d="M1130.663,58.906h-32.934l-11.31,28.609h-6.266l32.601-81.391h3.604l31.935,81.391h-6.376L1130.663,58.906z
		 M1099.781,53.805h28.997l-11.033-29.219c-0.925-2.292-2.033-5.47-3.327-9.536c-0.998,3.548-2.088,6.764-3.271,9.647
		L1099.781,53.805z"/>
	<path d="M1180.895,87.515h-5.711V11.779h-26.335V6.457h58.382v5.322h-26.336V87.515z"/>
	<path d="M1253.858,10.393c-10.165,0-18.167,3.252-24.007,9.758c-5.84,6.506-8.76,15.413-8.76,26.724
		c0,11.569,2.753,20.551,8.261,26.945c5.507,6.396,13.38,9.592,23.618,9.592c6.802,0,13.048-0.868,18.74-2.606v4.99
		c-5.359,1.885-12.05,2.828-20.07,2.828c-11.385,0-20.348-3.678-26.891-11.033c-6.542-7.355-9.813-17.631-9.813-30.827
		c0-8.242,1.56-15.505,4.683-21.789c3.123-6.284,7.614-11.135,13.473-14.554c5.858-3.418,12.671-5.128,20.433-5.128
		c7.91,0,14.988,1.479,21.235,4.436l-2.273,5.101C1266.573,11.871,1260.363,10.393,1253.858,10.393z"/>
	<path d="M1348.5,87.515h-5.711V47.651h-47.349v39.864h-5.655V6.457h5.655v35.982h47.349V6.457h5.711V87.515z"/>
</g>
</svg>
