<svg width="23.54" height="32" viewBox="0 0 451 613" version="1.1" xmlns="http://www.w3.org/2000/svg" xmlns:xlink="http://www.w3.org/1999/xlink">
  <g id="Page-1" stroke="none" stroke-width="1" fill="none" fill-rule="evenodd">
    <g id="Group-2" fill="#001329" fill-rule="nonzero">
      <g id="file-excel-icon">
        <g id="Group">
          <path d="M26.63,612.44904 L423.818,612.44904 C438.327,612.44904 450.159,600.617 450.159,586.108 L450.159,402.661 C450.159,397.051 445.569,392.461 439.96,392.461 C434.35,392.461 429.76,397.025 429.76,402.661 L429.76,586.108 C429.76,589.372 427.108,592.024 423.844,592.024 L26.63,592.024 C23.366,592.024 20.714,589.372 20.714,586.108 L20.714,26.944 C20.714,23.679 23.366,21.028 26.63,21.028 L279.565,21.028 L279.565,159.926 C279.565,165.535 284.129,170.125 289.765,170.125 L429.76,170.125 L429.76,257.106 C429.76,262.715 434.35,267.305 439.96,267.305 C445.569,267.305 450.159,262.741 450.159,257.106 L450.159,159.9 C450.159,159.467 449.955,159.085 449.904,158.651 C449.853,158.217 449.777,157.809 449.649,157.376 C449.19,155.668 448.451,154.062 447.253,152.837 C447.253,152.812 447.253,152.786 447.227,152.761 L447.202,152.736 C447.177,152.711 447.177,152.711 447.151,152.685 L305.422,8.38 C300.475,3.382 293.666,0.577 286.756,0.577 L26.63,0.577 C12.121,0.577 0.289,12.409 0.289,26.918 L0.289,586.108 C0.289,600.643 12.121,612.474 26.63,612.44904 Z M299.99,31.916 L415.683,149.701 L299.99,149.701 L299.99,31.916 Z" id="Shape"></path>
        </g>
      </g>
      <path d="M157,390 L157,272 L198.153226,272 C203.705673,272 208.90421,272.906416 213.748992,274.719274 C218.593774,276.532132 222.812482,279.086576 226.405242,282.382682 C229.998002,285.678787 232.828619,289.606588 234.897177,294.166201 C236.965736,298.725814 238,303.7523 238,309.24581 C238,314.84919 236.965736,319.93061 234.897177,324.490223 C232.828619,329.049837 229.998002,332.977637 226.405242,336.273743 C222.812482,339.569849 218.593774,342.124293 213.748992,343.937151 C208.90421,345.750009 203.705673,346.656425 198.153226,346.656425 L179.046371,346.656425 L179.046371,390 L157,390 Z M197.482301,325 C203.266991,325 207.632729,323.375651 210.579646,320.126904 C213.526563,316.878156 215,313.142153 215,308.918782 C215,306.861242 214.645284,304.857878 213.935841,302.908629 C213.226398,300.959381 212.134963,299.253814 210.661504,297.791878 C209.188046,296.329942 207.359893,295.165825 205.176991,294.299492 C202.994089,293.43316 200.429218,293 197.482301,293 L178,293 L178,325 L197.482301,325 Z M256,272 L296.465574,272 C305.941031,272 314.468815,273.428291 322.04918,276.284916 C329.629546,279.141541 336.095055,283.17921 341.445902,288.398045 C346.796748,293.616879 350.893428,299.851919 353.736066,307.103352 C356.578703,314.354785 358,322.320255 358,331 C358,339.789616 356.578703,347.81002 353.736066,355.061453 C350.893428,362.312885 346.796748,368.520458 341.445902,373.684358 C336.095055,378.848257 329.629546,382.858459 322.04918,385.715084 C314.468815,388.571709 305.941031,390 296.465574,390 L256,390 L256,272 Z M295.635294,369 C302.113758,369 307.823505,368.091313 312.764706,366.273913 C317.705907,364.456513 321.823513,361.895669 325.117647,358.591304 C328.411781,355.28694 330.882345,351.294226 332.529412,346.613043 C334.176479,341.931861 335,336.727565 335,331 C335,325.272435 334.176479,320.068139 332.529412,315.386957 C330.882345,310.705774 328.411781,306.71306 325.117647,303.408696 C321.823513,300.104331 317.705907,297.543487 312.764706,295.726087 C307.823505,293.908687 302.113758,293 295.635294,293 L279,293 L279,369 L295.635294,369 Z M377,272 L451,272 L451,293.094972 L399.004405,293.094972 L399.004405,321.77095 L445.784141,321.77095 L445.784141,342.865922 L399.004405,342.865922 L399.004405,390 L377,390 L377,272 Z" id="PDF"></path>
    </g>
  </g>
</svg>