<svg width="23.54" height="32" viewBox="0 0 451 613" version="1.1" xmlns="http://www.w3.org/2000/svg" xmlns:xlink="http://www.w3.org/1999/xlink">
  <g id="Page-1" stroke="none" stroke-width="1" fill="none" fill-rule="evenodd">
    <g id="file-excel-icon" fill="#001329" fill-rule="nonzero">
      <g id="Group">
        <path d="M26.63,612.44904 L423.818,612.44904 C438.327,612.44904 450.159,600.617 450.159,586.108 L450.159,402.661 C450.159,397.051 445.569,392.461 439.96,392.461 C434.35,392.461 429.76,397.025 429.76,402.661 L429.76,586.108 C429.76,589.372 427.108,592.024 423.844,592.024 L26.63,592.024 C23.366,592.024 20.714,589.372 20.714,586.108 L20.714,26.944 C20.714,23.679 23.366,21.028 26.63,21.028 L279.565,21.028 L279.565,159.926 C279.565,165.535 284.129,170.125 289.765,170.125 L429.76,170.125 L429.76,257.106 C429.76,262.715 434.35,267.305 439.96,267.305 C445.569,267.305 450.159,262.741 450.159,257.106 L450.159,159.9 C450.159,159.467 449.955,159.085 449.904,158.651 C449.853,158.217 449.777,157.809 449.649,157.376 C449.19,155.668 448.451,154.062 447.253,152.837 C447.253,152.812 447.253,152.786 447.227,152.761 L447.202,152.736 C447.177,152.711 447.177,152.711 447.151,152.685 L305.422,8.38 C300.475,3.382 293.666,0.577 286.756,0.577 L26.63,0.577 C12.121,0.577 0.289,12.409 0.289,26.918 L0.289,586.108 C0.289,600.643 12.121,612.474 26.63,612.44904 Z M299.99,31.916 L415.683,149.701 L299.99,149.701 L299.99,31.916 Z" id="Shape"></path>
        <g transform="translate(173.000000, 280.000000)" id="Path">
          <path d="M45.746,17.317 C51.024,17.317 55.538,18.796 59.235,21.754 C62.933,24.712 65.355,28.741 66.528,33.867 L86.24,29.149 C83.996,21.269 80.63,15.201 76.142,10.993 C68.62,3.853 58.801,0.308 46.741,0.308 C32.92,0.308 21.802,4.847 13.31,13.925 C4.844,23.003 0.611,35.753 0.611,52.15 C0.611,67.654 4.818,79.894 13.258,88.844 C21.699,97.794 32.46,102.257 45.541,102.257 C56.124,102.257 64.845,99.656 71.729,94.429 C78.615,89.201 83.536,81.22 86.494,70.458 L67.19,64.338 C65.533,71.555 62.804,76.859 58.979,80.199 C55.18,83.565 50.616,85.248 45.336,85.248 C38.171,85.248 32.331,82.597 27.844,77.317 C23.356,72.039 21.112,63.139 21.112,50.696 C21.112,38.94 23.382,30.449 27.946,25.196 C32.51,19.943 38.453,17.317 45.746,17.317 Z"></path>
          <path d="M139.434,85.53 C133.39,85.53 128.571,84 125,80.965 C121.431,77.905 119.059,73.137 117.911,66.635 L98.531,68.522 C99.832,79.538 103.809,87.953 110.491,93.715 C117.172,99.479 126.734,102.36 139.204,102.36 C147.771,102.36 154.912,101.162 160.649,98.765 C166.386,96.368 170.823,92.696 173.96,87.774 C177.097,82.853 178.678,77.548 178.678,71.914 C178.678,65.691 177.377,60.438 174.751,56.206 C172.124,51.973 168.503,48.633 163.862,46.185 C159.221,43.737 152.055,41.366 142.365,39.096 C132.676,36.801 126.581,34.608 124.082,32.517 C122.119,30.859 121.124,28.871 121.124,26.524 C121.124,23.974 122.17,21.934 124.286,20.405 C127.55,18.033 132.089,16.835 137.878,16.835 C143.487,16.835 147.695,17.957 150.5,20.176 C153.306,22.394 155.142,26.04 155.982,31.115 L175.898,30.248 C175.591,21.195 172.302,13.953 166.055,8.521 C159.807,3.089 150.474,0.387 138.107,0.387 C130.533,0.387 124.056,1.534 118.702,3.829 C113.347,6.124 109.241,9.438 106.385,13.825 C103.53,18.185 102.127,22.902 102.127,27.927 C102.127,35.73 105.161,42.334 111.205,47.766 C115.515,51.617 122.985,54.88 133.67,57.506 C141.958,59.572 147.287,61 149.608,61.816 C153.025,63.015 155.397,64.443 156.774,66.075 C158.151,67.707 158.814,69.696 158.814,72.016 C158.814,75.637 157.182,78.825 153.943,81.528 C150.679,84.152 145.834,85.53 139.434,85.53 Z"></path>
          <polygon points="277.159 1.991 256.045 1.991 231.897 74.972 206.957 1.991 185.359 1.991 220.6 100.574 241.841 100.574"></polygon>
        </g>
      </g>
    </g>
  </g>
</svg>