<?xml version="1.0" encoding="UTF-8"?>
<svg width="565px" height="577px" viewBox="0 0 565 577" version="1.1" xmlns="http://www.w3.org/2000/svg" xmlns:xlink="http://www.w3.org/1999/xlink">
    <!-- Generator: Sketch 57.1 (83088) - https://sketch.com -->
    <title>energy emission map</title>
    <desc>Created with Sketch.</desc>
    <g id="Page-1" stroke="none" stroke-width="1" fill="none" fill-rule="evenodd">
        <g id="energy-emission-map" fill="#FFFFFF" fill-rule="nonzero">
            <path d="M58.847,553.154 C58.847,566.099 69.439,576.692 82.385,576.692 L482.538,576.692 C495.484,576.692 506.077,566.099 506.077,553.154 L506.077,247.153 L58.847,247.153 L58.847,553.154 Z M196.546,391.915 L331.893,262.454 C335.423,258.923 342.485,257.746 347.193,261.276 C351.9,264.807 353.078,270.692 351.9,275.399 L315.416,370.73 L371.908,370.73 C376.616,370.73 381.324,373.084 382.501,377.792 C384.855,382.5 383.678,387.207 380.147,390.738 L244.8,537.854 C242.446,540.208 238.915,541.385 236.562,541.385 C235.385,541.385 233.032,541.385 231.854,540.208 C227.147,537.854 224.792,533.146 225.97,527.262 L247.155,411.923 L205.963,411.923 C201.255,411.923 196.547,408.393 195.37,404.861 C191.839,400.154 193.016,395.446 196.546,391.915 Z" id="Shape"></path>
            <path d="M542.562,155.354 L311.885,122.4 C293.054,120.046 273.046,120.046 253.038,122.4 L22.361,155.354 C9.415,155.354 0,164.77 0,176.538 L0,202.431 C0,214.201 10.593,223.616 23.539,223.616 L541.385,223.616 C554.331,223.616 564.923,214.201 564.923,202.431 L564.923,176.538 C564.923,165.946 554.331,156.53 542.562,155.354 Z" id="Path"></path>
            <path d="M35.308,70.615 C28.246,70.615 23.539,75.323 23.539,82.385 C23.539,89.447 28.246,94.154 35.308,94.154 L58.847,94.154 L58.847,127.108 L117.693,118.87 L117.693,95.331 L141.231,95.331 C148.293,95.331 153.001,90.623 153.001,83.561 C153.001,76.499 148.293,71.791 141.231,71.791 L117.693,71.791 L117.693,48.254 L141.231,48.254 C148.293,48.254 153.001,43.546 153.001,36.484 C153.001,29.422 148.293,24.714 141.231,24.714 L116.516,24.714 C112.985,11.769 101.216,1.176 88.27,1.176 C75.324,1.176 63.554,11.77 60.023,24.715 L35.308,24.715 C28.246,24.715 23.539,29.423 23.539,36.485 C23.539,43.547 28.246,48.255 35.308,48.255 L58.847,48.255 L58.847,71.793 L35.308,71.793 L35.308,70.615 Z" id="Path"></path>
            <path d="M423.692,70.615 C416.63,70.615 411.922,75.323 411.922,82.385 C411.922,89.447 416.63,94.154 423.692,94.154 L447.23,94.154 L447.23,117.693 L506.077,125.931 L506.077,94.153 L529.615,94.153 C536.677,94.153 541.385,89.446 541.385,82.384 C541.385,75.322 536.677,70.614 529.615,70.614 L506.077,70.614 L506.077,47.077 L529.615,47.077 C536.677,47.077 541.385,42.369 541.385,35.307 C541.385,28.245 536.677,23.537 529.615,23.537 L504.899,23.537 C501.369,10.592 489.6,0 476.653,0 C463.708,0 451.938,10.592 448.407,23.538 L423.692,23.538 C416.63,23.538 411.922,28.246 411.922,35.308 C411.922,42.37 416.63,47.078 423.692,47.078 L447.23,47.078 L447.23,70.616 L423.692,70.616 L423.692,70.615 Z" id="Path"></path>
        </g>
    </g>
</svg>