<?xml version="1.0" encoding="UTF-8"?>
<svg width="364px" height="246px" viewBox="0 0 364 246" version="1.1" xmlns="http://www.w3.org/2000/svg" xmlns:xlink="http://www.w3.org/1999/xlink">
    <!-- Generator: Sketch 57.1 (83088) - https://sketch.com -->
    <title>forestry icon map emission</title>
    <desc>Created with Sketch.</desc>
    <g id="Page-1" stroke="none" stroke-width="1" fill="none" fill-rule="evenodd">
        <g id="forestry-icon-map-emission" fill="#00571E" fill-rule="nonzero">
            <path d="M230.025,129.534 C232.597,148.162 248.414,162.562 267.75,162.562 L286.875,162.562 L286.875,245.541 L306,245.541 L306,162.562 L325.125,162.562 C346.248,162.562 363.375,145.436 363.375,124.312 C363.375,109.988 355.399,97.642 343.742,91.092 C343.925,89.418 344.25,87.783 344.25,86.062 C344.25,59.661 322.839,38.249 296.437,38.249 C277.407,38.249 261.123,49.447 253.424,65.541 C256.484,71.861 258.187,78.842 258.187,86.062 C258.188,105.407 246.588,122.018 230.025,129.534 Z" id="Path"></path>
            <path d="M38.25,162.563 L57.375,162.563 L57.375,245.542 L76.5,245.542 L76.5,162.563 L95.625,162.563 C114.96,162.563 130.776,148.163 133.349,129.535 C116.786,122.018 105.188,105.408 105.188,86.063 C105.188,78.843 106.89,71.853 109.95,65.533 C102.252,49.448 85.967,38.25 66.938,38.25 C40.536,38.25 19.125,59.661 19.125,86.063 C19.125,87.785 19.45,89.419 19.632,91.093 C7.975,97.643 0,109.988 0,124.313 C0,145.437 17.126,162.563 38.25,162.563 Z" id="Path"></path>
            <path d="M153,124.313 L172.125,124.313 L172.125,245.542 L191.25,245.542 L191.25,124.313 L210.375,124.313 C231.498,124.313 248.625,107.187 248.625,86.063 C248.625,71.739 240.649,59.393 228.992,52.843 C229.175,51.169 229.5,49.534 229.5,47.813 C229.5,21.411 208.089,0 181.688,0 C155.286,0 133.875,21.411 133.875,47.813 C133.875,49.535 134.2,51.169 134.382,52.843 C122.725,59.393 114.75,71.739 114.75,86.063 C114.75,107.187 131.876,124.313 153,124.313 Z" id="Path"></path>
        </g>
    </g>
</svg>