<?xml version="1.0" encoding="UTF-8"?>
<svg width="604px" height="600px" viewBox="0 0 604 600" version="1.1" xmlns="http://www.w3.org/2000/svg" xmlns:xlink="http://www.w3.org/1999/xlink">
    <!-- Generator: Sketch 57.1 (83088) - https://sketch.com -->
    <title>industry map emission</title>
    <desc>Created with Sketch.</desc>
    <g id="Page-1" stroke="none" stroke-width="1" fill="none" fill-rule="evenodd">
        <g id="industry-map-emission" transform="translate(0.000000, -1.000000)" fill="#FF2A5C" fill-rule="nonzero">
            <g id="Group" transform="translate(19.000000, 0.000000)">
                <path d="M381.35,33.938 L286.15,1.637 C284.45,0.787 281.9,0.787 280.2,1.637 L7.35,94.287 C-1.15,96.837 -1.15,109.587 7.35,112.137 L89.8,140.188 C90.65,140.188 91.5,140.188 92.35,140.188 L381.35,42.438 C385.6,40.737 385.6,35.637 381.35,33.938 Z" id="Path"></path>
                <path d="M558.149,94.287 L462.099,61.137 C461.249,61.137 460.399,61.137 459.549,61.137 L170.549,158.887 C166.299,160.587 166.299,165.688 170.549,167.387 L279.349,203.938 C281.049,204.788 283.599,204.788 285.299,203.938 L558.149,111.288 C566.649,108.737 566.649,96.837 558.149,94.287 Z" id="Path"></path>
            </g>
            <path d="M274.55,248.987 L191.25,220.087 C187,218.387 182.75,221.787 182.75,226.037 L182.75,294.037 C182.75,299.137 176.8,302.537 172.55,299.137 L113.05,257.488 C111.35,256.637 110.5,254.088 110.5,252.387 L110.5,197.137 C110.5,194.587 108.8,192.037 106.25,191.188 L12.75,159.738 C6.8,158.038 0,162.288 0,168.238 L0,501.438 C0,505.688 2.55,509.087 5.95,509.938 L267.75,600.038 C273.7,601.738 280.5,597.488 280.5,591.538 L280.5,257.488 C280.5,254.087 277.95,249.837 274.55,248.987 Z" id="Path"></path>
            <g id="Group" transform="translate(323.000000, 159.000000)">
                <path d="M141.949,165.637 C111.349,171.587 91.8,201.337 97.75,231.938 C103.699,262.538 133.449,282.087 164.05,276.138 C194.65,270.188 214.199,240.438 208.25,209.837 C202.3,179.237 172.55,158.837 141.949,165.637 Z M153,253.188 C135.149,253.188 120.699,238.738 120.699,220.887 C120.699,203.037 135.149,188.587 153,188.587 C170.85,188.587 185.3,203.037 185.3,220.887 C185.3,238.737 170.85,253.188 153,253.188 Z" id="Shape"></path>
                <path d="M267.75,0.737 L5.949,89.987 C2.55,91.687 0,95.087 0,98.487 L0,431.687 C0,438.487 5.949,442.737 12.75,440.187 L274.55,350.937 C277.949,349.237 280.5,345.836 280.5,342.437 L280.5,9.237 C280.5,3.287 274.55,-1.812 267.75,0.737 Z M253.3,219.188 L240.55,221.738 C238,222.588 236.3,224.288 236.3,226.838 C235.449,233.638 234.6,240.439 232.05,246.389 C231.199,248.939 232.05,251.489 233.75,252.338 L244.8,259.988 C247.35,261.688 248.199,265.088 246.5,267.638 L232.05,289.738 C230.35,292.288 226.949,293.138 224.4,291.438 L213.35,283.788 C211.65,282.088 209.1,282.938 206.55,284.639 C201.449,288.889 196.35,292.288 190.4,295.689 C187.85,296.539 187.001,299.088 187.85,301.639 L190.4,314.389 C191.251,316.939 189.55,320.338 186.15,320.338 L159.8,325.439 C157.25,326.289 153.85,324.588 153.85,321.189 L151.3,308.439 C150.449,305.889 148.75,304.189 146.199,304.189 C139.399,303.338 132.599,302.489 126.649,299.939 C124.099,299.088 121.549,299.939 120.699,301.639 L113.05,312.689 C111.35,315.239 107.949,316.088 105.4,314.389 L83.3,299.939 C80.75,298.239 79.9,294.838 81.6,292.289 L89.25,281.239 C90.949,279.539 90.1,276.989 88.399,274.439 C84.149,269.338 80.75,264.239 77.349,258.289 C76.499,255.739 73.949,254.89 71.399,255.739 L58.649,258.289 C56.099,259.14 52.699,257.439 52.699,254.039 L47.599,227.689 C46.749,225.138 48.449,221.739 51.849,221.739 L64.599,219.189 C67.149,218.338 68.849,216.638 68.849,214.088 C69.699,207.288 70.549,200.488 73.099,194.538 C73.949,191.988 73.099,189.438 71.399,188.588 L60.349,180.939 C57.799,179.239 56.949,175.838 58.649,173.289 L73.099,151.189 C74.799,148.638 78.199,147.789 80.749,149.489 L91.799,157.138 C93.499,158.838 96.049,157.989 98.599,156.288 C103.699,152.038 108.799,148.638 114.749,145.238 C117.299,144.387 118.148,141.838 117.299,139.288 L114.749,126.538 C113.898,123.988 115.599,120.588 118.999,120.588 L145.349,115.488 C147.899,114.637 151.299,116.338 151.299,119.738 L153.849,132.488 C154.699,135.038 156.399,136.738 158.949,136.738 C165.75,137.588 172.55,138.438 178.5,140.988 C181.05,141.838 183.6,140.988 184.449,139.288 L192.099,128.238 C193.799,125.688 197.199,124.838 199.749,126.538 L221.849,140.988 C224.399,142.688 225.249,146.088 223.549,148.637 L215.899,159.688 C214.199,161.387 215.049,163.938 216.75,166.488 C221,171.588 224.399,176.688 227.8,182.637 C228.65,184.337 231.199,186.037 233.75,185.188 L246.5,182.637 C249.05,181.787 252.449,183.488 252.449,186.887 L257.55,213.238 C257.55,216.637 255.85,219.188 253.3,219.188 Z" id="Shape"></path>
            </g>
        </g>
    </g>
</svg>