<svg width="32" height="32" viewBox="0 0 536 536" version="1.1" xmlns="http://www.w3.org/2000/svg" xmlns:xlink="http://www.w3.org/1999/xlink">
  <g id="Page-1" stroke="none" stroke-width="1" fill="none" fill-rule="evenodd">
    <g id="share-icon" fill="#001329" fill-rule="nonzero">
      <path d="M439.875,344.25 C410.613,344.465 383.062,358.064 365.096,381.162 L187.617,292.422 C189.9,284.392 191.121,276.098 191.251,267.75 C191.121,259.403 189.9,251.109 187.617,243.079 L365.096,154.339 C383.062,177.436 410.614,191.036 439.875,191.25 C492.687,191.25 535.5,148.437 535.5,95.625 C535.5,42.813 492.687,0 439.875,0 C387.062,0 344.25,42.813 344.25,95.625 C344.379,103.973 345.601,112.267 347.883,120.297 L170.404,209.036 C152.438,185.939 124.886,172.34 95.626,172.125 C42.813,172.125 0,214.938 0,267.75 C0,320.563 42.813,363.375 95.625,363.375 C124.886,363.161 152.438,349.561 170.403,326.464 L347.882,415.204 C334.257,466.228 364.575,518.638 415.6,532.263 C466.625,545.888 519.034,515.57 532.659,464.545 C546.284,413.52 515.966,361.111 464.941,347.486 C456.766,345.304 448.337,344.215 439.875,344.25 Z M439.875,38.25 C471.562,38.25 497.25,63.938 497.25,95.625 C497.25,127.312 471.562,153 439.875,153 C408.187,153 382.5,127.312 382.5,95.625 C382.5,63.938 408.188,38.25 439.875,38.25 Z M95.625,325.125 C63.937,325.125 38.25,299.437 38.25,267.75 C38.25,236.063 63.938,210.375 95.625,210.375 C127.312,210.375 153,236.063 153,267.75 C153,299.437 127.313,325.125 95.625,325.125 Z M439.875,497.25 C408.187,497.25 382.5,471.562 382.5,439.875 C382.5,408.188 408.188,382.5 439.875,382.5 C471.562,382.5 497.25,408.188 497.25,439.875 C497.25,471.563 471.562,497.25 439.875,497.25 Z" id="Shape"></path>
    </g>
  </g>
</svg>