<?xml version="1.0" encoding="UTF-8"?>
<svg width="79px" height="100px" viewBox="0 0 79 100" version="1.1" xmlns="http://www.w3.org/2000/svg" xmlns:xlink="http://www.w3.org/1999/xlink">
    <!-- Generator: Sketch 57.1 (83088) - https://sketch.com -->
    <title>waste emission map</title>
    <desc>Created with Sketch.</desc>
    <g id="Page-1" stroke="none" stroke-width="1" fill="none" fill-rule="evenodd">
        <g id="waste-emission-map" fill="#1B90F9" fill-rule="nonzero">
            <path d="M73.685,10.526 L52.632,10.526 L52.632,2.631 C52.632,1.173 51.458,0 50.001,0 L28.947,0 C27.489,0 26.316,1.173 26.316,2.631 L26.316,10.526 L5.263,10.526 C2.347,10.526 0,12.874 0,15.789 C0,18.706 2.347,21.052 5.263,21.052 L73.684,21.052 C76.6,21.052 78.948,18.705 78.948,15.789 C78.947,12.874 76.601,10.526 73.685,10.526 Z M47.368,10.526 L31.579,10.526 L31.579,5.263 L47.368,5.263 L47.368,10.526 Z" id="Shape"></path>
            <path d="M5.263,26.316 C2.347,26.316 -0.397,28.703 0.082,31.579 L10.526,94.736 C11.002,97.613 12.874,100 15.79,100 L63.159,100 C66.075,100 67.942,97.613 68.421,94.736 L78.867,31.578 C79.343,28.702 76.6,26.315 73.684,26.315 L5.263,26.316 L5.263,26.316 Z" id="Path"></path>
        </g>
    </g>
</svg>